<svg  xmlns="http://www.w3.org/2000/svg" xmlns:xlink="http://www.w3.org/1999/xlink" width="500" zoomAndPan="magnify" viewBox="0 0 375 374.999991" height="500" preserveAspectRatio="xMidYMid meet" version="1.0"><defs><g/><clipPath id="60f02fa31f"><path d="M 101.890625 83.167969 L 274.277344 83.167969 L 274.277344 255.554688 L 101.890625 255.554688 Z M 101.890625 83.167969 " clip-rule="nonzero"/></clipPath><clipPath id="0b2ab86a28"><path d="M 188.082031 83.167969 C 140.480469 83.167969 101.890625 121.757812 101.890625 169.359375 C 101.890625 216.964844 140.480469 255.554688 188.082031 255.554688 C 235.6875 255.554688 274.277344 216.964844 274.277344 169.359375 C 274.277344 121.757812 235.6875 83.167969 188.082031 83.167969 " clip-rule="nonzero"/></clipPath></defs><rect x="-37.5" width="450" fill="#ffffff" y="-37.499999" height="449.999989" fill-opacity="1"/><rect x="-37.5" width="450" fill="#ffffff" y="-37.499999" height="449.999989" fill-opacity="1"/><rect x="-37.5" width="450" fill="#ffffff" y="-37.499999" height="449.999989" fill-opacity="1"/><g clip-path="url(#60f02fa31f)"><g clip-path="url(#0b2ab86a28)"><path fill="#000000" d="M 101.890625 83.167969 L 274.277344 83.167969 L 274.277344 255.554688 L 101.890625 255.554688 Z M 101.890625 83.167969 " fill-opacity="1" fill-rule="nonzero"/></g></g><g fill="#f49750" fill-opacity="1"><g transform="translate(153.267754, 219.281302)"><g><path d="M 5.761719 0.6875 L 62.417969 0.824219 C 65.4375 0.824219 67.769531 -1.097656 67.769531 -3.976562 L 67.90625 -22.496094 C 67.90625 -25.652344 65.574219 -28.121094 62.554688 -28.121094 L 40.46875 -27.984375 C 68.867188 -67.355469 68.867188 -66.671875 68.867188 -69.414062 L 68.867188 -92.050781 C 68.867188 -95.066406 66.535156 -97.261719 63.652344 -97.261719 L 5.214844 -97.398438 C 2.058594 -97.398438 -0.136719 -94.792969 0 -92.1875 L 0.6875 -72.019531 C 0.824219 -69.277344 3.292969 -66.945312 6.035156 -66.945312 L 31.964844 -67.082031 L 1.507812 -27.847656 C 0.824219 -26.886719 0.410156 -25.789062 0.410156 -24.554688 L 0.546875 -4.390625 C 0.546875 -1.507812 2.878906 0.6875 5.761719 0.6875 Z M 5.761719 0.6875 "/></g></g></g><g fill="#000000" fill-opacity="1"><g transform="translate(143.769087, 287.533078)"><g><path d="M 10.84375 -1.875 L 10.84375 0 L 0.703125 0 L 0.703125 -1.484375 L 7.703125 -10.03125 L 0.8125 -10.03125 L 0.8125 -11.90625 L 10.625 -11.90625 L 10.625 -10.421875 L 3.625 -1.875 Z M 10.84375 -1.875 "/></g></g></g><g fill="#000000" fill-opacity="1"><g transform="translate(156.904889, 287.533078)"><g><path d="M 0.9375 -5.609375 L 5.609375 -5.609375 L 5.609375 -3.84375 L 0.9375 -3.84375 Z M 0.9375 -5.609375 "/></g></g></g><g fill="#000000" fill-opacity="1"><g transform="translate(165.31688, 287.533078)"><g><path d="M 4.015625 -10.03125 L 0.0625 -10.03125 L 0.0625 -11.90625 L 10.171875 -11.90625 L 10.171875 -10.03125 L 6.21875 -10.03125 L 6.21875 0 L 4.015625 0 Z M 4.015625 -10.03125 "/></g></g></g><g fill="#000000" fill-opacity="1"><g transform="translate(177.416168, 287.533078)"><g><path d="M 10.515625 -1.859375 L 10.515625 0 L 1.59375 0 L 1.59375 -11.90625 L 10.28125 -11.90625 L 10.28125 -10.046875 L 3.8125 -10.046875 L 3.8125 -6.953125 L 9.546875 -6.953125 L 9.546875 -5.140625 L 3.8125 -5.140625 L 3.8125 -1.859375 Z M 10.515625 -1.859375 "/></g></g></g><g fill="#000000" fill-opacity="1"><g transform="translate(190.67092, 287.533078)"><g><path d="M 7.109375 0.171875 C 5.898438 0.171875 4.8125 -0.0859375 3.84375 -0.609375 C 2.875 -1.140625 2.113281 -1.867188 1.5625 -2.796875 C 1.019531 -3.734375 0.75 -4.785156 0.75 -5.953125 C 0.75 -7.117188 1.023438 -8.164062 1.578125 -9.09375 C 2.128906 -10.019531 2.890625 -10.742188 3.859375 -11.265625 C 4.835938 -11.796875 5.925781 -12.0625 7.125 -12.0625 C 8.09375 -12.0625 8.976562 -11.890625 9.78125 -11.546875 C 10.59375 -11.210938 11.273438 -10.722656 11.828125 -10.078125 L 10.40625 -8.734375 C 9.539062 -9.660156 8.476562 -10.125 7.21875 -10.125 C 6.40625 -10.125 5.675781 -9.945312 5.03125 -9.59375 C 4.382812 -9.238281 3.878906 -8.742188 3.515625 -8.109375 C 3.148438 -7.472656 2.96875 -6.753906 2.96875 -5.953125 C 2.96875 -5.148438 3.148438 -4.429688 3.515625 -3.796875 C 3.878906 -3.160156 4.382812 -2.660156 5.03125 -2.296875 C 5.675781 -1.941406 6.40625 -1.765625 7.21875 -1.765625 C 8.476562 -1.765625 9.539062 -2.234375 10.40625 -3.171875 L 11.828125 -1.8125 C 11.273438 -1.164062 10.59375 -0.671875 9.78125 -0.328125 C 8.96875 0.00390625 8.078125 0.171875 7.109375 0.171875 Z M 7.109375 0.171875 "/></g></g></g><g fill="#000000" fill-opacity="1"><g transform="translate(204.89422, 287.533078)"><g><path d="M 12.171875 -11.90625 L 12.171875 0 L 9.96875 0 L 9.96875 -5.09375 L 3.8125 -5.09375 L 3.8125 0 L 1.59375 0 L 1.59375 -11.90625 L 3.8125 -11.90625 L 3.8125 -6.984375 L 9.96875 -6.984375 L 9.96875 -11.90625 Z M 12.171875 -11.90625 "/></g></g></g><g fill="#000000" fill-opacity="1"><g transform="translate(220.527867, 287.533078)"><g><path d="M 5.28125 0.171875 C 4.363281 0.171875 3.476562 0.0390625 2.625 -0.21875 C 1.769531 -0.476562 1.09375 -0.828125 0.59375 -1.265625 L 1.359375 -2.96875 C 1.847656 -2.582031 2.445312 -2.269531 3.15625 -2.03125 C 3.863281 -1.789062 4.570312 -1.671875 5.28125 -1.671875 C 6.164062 -1.671875 6.828125 -1.8125 7.265625 -2.09375 C 7.703125 -2.375 7.921875 -2.75 7.921875 -3.21875 C 7.921875 -3.550781 7.796875 -3.828125 7.546875 -4.046875 C 7.304688 -4.273438 7 -4.453125 6.625 -4.578125 C 6.25 -4.703125 5.738281 -4.84375 5.09375 -5 C 4.1875 -5.21875 3.453125 -5.429688 2.890625 -5.640625 C 2.335938 -5.859375 1.859375 -6.195312 1.453125 -6.65625 C 1.046875 -7.113281 0.84375 -7.734375 0.84375 -8.515625 C 0.84375 -9.171875 1.019531 -9.769531 1.375 -10.3125 C 1.738281 -10.851562 2.28125 -11.28125 3 -11.59375 C 3.71875 -11.90625 4.597656 -12.0625 5.640625 -12.0625 C 6.367188 -12.0625 7.082031 -11.972656 7.78125 -11.796875 C 8.488281 -11.617188 9.097656 -11.359375 9.609375 -11.015625 L 8.90625 -9.296875 C 8.382812 -9.609375 7.835938 -9.84375 7.265625 -10 C 6.703125 -10.15625 6.15625 -10.234375 5.625 -10.234375 C 4.75 -10.234375 4.097656 -10.082031 3.671875 -9.78125 C 3.253906 -9.488281 3.046875 -9.101562 3.046875 -8.625 C 3.046875 -8.28125 3.164062 -8 3.40625 -7.78125 C 3.65625 -7.570312 3.960938 -7.40625 4.328125 -7.28125 C 4.703125 -7.15625 5.210938 -7.007812 5.859375 -6.84375 C 6.742188 -6.644531 7.46875 -6.429688 8.03125 -6.203125 C 8.601562 -5.984375 9.085938 -5.644531 9.484375 -5.1875 C 9.890625 -4.738281 10.09375 -4.128906 10.09375 -3.359375 C 10.09375 -2.703125 9.914062 -2.109375 9.5625 -1.578125 C 9.207031 -1.046875 8.664062 -0.617188 7.9375 -0.296875 C 7.207031 0.015625 6.320312 0.171875 5.28125 0.171875 Z M 5.28125 0.171875 "/></g></g></g></svg>